<svg xmlns="http://www.w3.org/2000/svg" viewBox="0 0 64 64">
  <rect width="64" height="64" rx="16" fill="#FFF0EB"/>
  <rect x="2" y="2" width="60" height="60" rx="14" fill="none" stroke="#F9C5BC" stroke-width="3"/>
  <path d="M32 49.5l-2.6-2.37C20.2 38.84 14 33.3 14 26.5 14 20.96 18.36 16.6 23.9 16.6c3.13 0 6.14 1.46 8.1 3.76 1.96-2.3 4.97-3.76 8.1-3.76 5.54 0 9.9 4.36 9.9 9.9 0 6.8-6.2 12.34-15.4 20.63L32 49.5z" fill="#F4846A"/>
  <circle cx="49" cy="14" r="2.4" fill="#C5B3E0"/>
  <path d="M15 12.4l1 2.2 2.2 1-2.2 1-1 2.2-1-2.2-2.2-1 2.2-1z" fill="#F4B6A6"/>
</svg>
